<?xml version="1.0" encoding="utf-8"?>
<svg xmlns="http://www.w3.org/2000/svg" viewBox="-599.953 -359.833 2395.558 541.944">
  <rect x="-587.2" y="-349.56" width="2470" height="520.002" style="fill: none; stroke-width: 0.536;"/>
  <g transform="matrix(0.999997, 0, 0, 1, -860.819153, -748.840515)">
    <path d="M317.5,432.5C466.167,432.333 614.834,432.5 763.5,433C764,433.5 764.5,434 765,434.5C765.667,439.833 765.667,445.167 765,450.5C764.167,451.333 763.333,452.167 762.5,453C614.5,453.667 466.5,453.667 318.5,453C317.667,452.167 316.833,451.333 316,450.5C315.333,445.167 315.333,439.833 316,434.5C316.717,433.956 317.217,433.289 317.5,432.5Z" style="fill:rgb(37,42,50);"/>
  </g>
  <g transform="matrix(0.999997, 0, 0, 1, -860.819153, -748.840515)">
    <path d="M482.5,463.5L598.5,463.5C598.667,479.837 598.5,496.17 598,512.5C596.833,513.667 595.667,514.833 594.5,516C576.5,516.167 558.5,516.333 540.5,516.5C521.746,516.655 503.079,516.155 484.5,515C483.874,514.25 483.374,513.416 483,512.5C482.5,496.17 482.333,479.837 482.5,463.5Z" style="fill:rgb(38,43,50);"/>
  </g>
  <g transform="matrix(0.999997, 0, 0, 1, -860.819153, -748.840515)">
    <path d="M568.5,567.5C567.262,569.214 566.595,571.214 566.5,573.5C548.757,573.819 531.09,573.486 513.5,572.5C509.637,557.385 505.304,542.385 500.5,527.5C527.167,526.167 553.833,526.167 580.5,527.5C575.878,540.659 571.878,553.992 568.5,567.5Z" style="fill:rgb(36,41,49);"/>
  </g>
  <g transform="matrix(0.999997, 0, 0, 1, -860.819153, -748.840515)">
    <path d="M568.5,567.5C568.326,569.861 567.993,572.194 567.5,574.5C549.136,575.153 531.136,574.487 513.5,572.5C531.09,573.486 548.757,573.819 566.5,573.5C566.595,571.214 567.262,569.214 568.5,567.5Z" style="fill:rgb(208,209,211);"/>
  </g>
  <g transform="matrix(0.999997, 0, 0, 1, -860.819153, -748.840515)">
    <path d="M562.5,586.5C555.532,585.169 548.198,584.503 540.5,584.5C532.802,584.503 525.468,585.169 518.5,586.5C517.596,585.791 517.263,584.791 517.5,583.5L563.5,583.5C563.737,584.791 563.404,585.791 562.5,586.5Z" style="fill:rgb(180,181,184);"/>
  </g>
  <g transform="matrix(0.999997, 0, 0, 1, -860.819153, -748.840515)">
    <path d="M562.5,586.5C559.003,596.998 555.67,607.665 552.5,618.5C551.975,619.192 551.308,619.692 550.5,620C543.5,620.667 536.5,620.667 529.5,620C529,619.5 528.5,619 528,618.5C524.266,607.989 521.099,597.323 518.5,586.5C525.468,585.169 532.802,584.503 540.5,584.5C548.198,584.503 555.532,585.169 562.5,586.5Z" style="fill:rgb(36,41,49);"/>
  </g>
  <g transform="matrix(0.999997, 0, 0, 1, -860.819153, -748.840515)">
    <path d="M752.5,857.5C753.966,856.653 754.8,855.32 755,853.5C755.812,849.311 755.645,845.311 754.5,841.5C751.554,829.39 743.887,822.223 731.5,820C602.5,819.667 473.5,819.333 344.5,819C332.32,815.979 323.653,808.812 318.5,797.5C315.871,787.801 315.871,778.134 318.5,768.5C323.884,756.296 333.217,749.13 346.5,747C475.5,746.667 604.5,746.333 733.5,746C748.88,741.62 756.047,731.454 755,715.5C752.158,704.658 745.325,697.825 734.5,695C669.167,694.667 603.833,694.333 538.5,694C537.667,693.167 536.833,692.333 536,691.5C535.5,671.503 535.333,651.503 535.5,631.5L545.5,631.5C545.333,647.837 545.5,664.17 546,680.5C546.374,681.416 546.874,682.25 547.5,683C609.167,683.333 670.833,683.667 732.5,684C760.176,691.521 770.009,709.021 762,736.5C755.89,747.93 746.39,754.763 733.5,757C604.167,757.333 474.833,757.667 345.5,758C326.192,766.113 321.025,779.613 330,798.5C333.903,803.868 339.07,807.368 345.5,809C475.863,809.01 606.196,809.677 736.5,811C754.348,815.366 764.015,826.7 765.5,845C764.804,864.012 755.47,876.345 737.5,882C597.5,882.667 457.5,882.667 317.5,882C314.833,879 314.833,876 317.5,873C456.167,872.667 594.833,872.333 733.5,872C742.007,869.991 748.34,865.157 752.5,857.5Z" style="fill:rgb(39,44,52);"/>
  </g>
  <g transform="matrix(0.999997, 0, 0, 1, -860.819153, -748.840515)">
    <path d="M318.5,768.5C315.871,778.134 315.871,787.801 318.5,797.5C317.207,796.158 316.374,794.491 316,792.5C315.333,786.167 315.333,779.833 316,773.5C316.374,771.509 317.207,769.842 318.5,768.5Z" style="fill:rgb(84,87,94);"/>
  </g>
  <g transform="matrix(0.999997, 0, 0, 1, -860.819153, -748.840515)">
    <path d="M754.5,841.5C755.645,845.311 755.812,849.311 755,853.5C754.8,855.32 753.966,856.653 752.5,857.5C754.184,852.324 754.85,846.991 754.5,841.5Z" style="fill:rgb(123,126,131);"/>
  </g>
  <g transform="matrix(2.35951, 0, 0, 2.35951, 74.933067, -546.552856)" style="">
    <path d="M 191.637 116.431 C 194.789 118.641 195.537 120.091 196.637 123.801 C 196.637 128.266 195.457 130.045 192.637 133.429 C 189.537 134.98 187.058 134.719 183.637 134.429 C 180.884 132.634 179.111 131.377 177.637 128.429 C 177.227 123.811 177.701 121.071 180.637 117.431 C 184.514 115.121 187.353 115.151 191.637 116.431 Z" style="stroke-width: 1; fill: rgb(37, 42, 50);"/>
    <path d="M 319.637 117.431 C 323.597 117.431 327.557 117.431 331.637 117.431 C 331.967 127.659 332.297 137.889 332.637 148.429 C 349.797 148.759 366.957 149.089 384.637 149.429 C 384.637 152.729 384.637 156.029 384.637 159.429 C 383.637 160.429 383.637 160.429 381.543 160.55 C 380.621 160.547 379.7 160.545 378.75 160.543 C 377.709 160.543 376.668 160.543 375.596 160.543 C 374.464 160.538 373.331 160.532 372.165 160.527 C 371.012 160.526 369.859 160.524 368.671 160.523 C 364.973 160.517 361.274 160.505 357.575 160.492 C 355.074 160.487 352.574 160.482 350.073 160.478 C 343.928 160.467 337.783 160.45 331.637 160.429 C 331.705 167.386 331.795 174.342 331.9 181.297 C 331.933 183.661 331.961 186.025 331.984 188.388 C 332.018 191.797 332.07 195.205 332.126 198.613 C 332.132 199.66 332.138 200.708 332.145 201.787 C 332.296 209.398 333.066 216.232 337.95 222.304 C 344.124 227.186 350.195 229.004 358.005 228.179 C 364.23 227.006 368.54 224.702 372.887 219.992 C 375.524 214.625 375.912 209.354 376.637 203.429 C 380.927 203.429 385.217 203.429 389.637 203.429 C 387.994 221.249 387.994 221.249 383.637 227.429 C 383.255 227.979 382.872 228.528 382.477 229.094 C 377.357 235.778 370.761 239.005 362.637 240.429 C 351.173 241.556 339.381 240.997 329.762 233.929 C 324.813 229.211 319.962 220.436 319.514 213.53 C 319.515 212.81 319.516 212.09 319.517 211.348 C 319.516 210.52 319.514 209.691 319.513 208.837 C 319.517 207.931 319.52 207.026 319.524 206.093 C 319.524 205.137 319.524 204.18 319.523 203.195 C 319.524 200.03 319.532 196.864 319.54 193.699 C 319.542 191.506 319.543 189.313 319.544 187.12 C 319.548 181.345 319.558 175.57 319.569 169.794 C 319.579 163.903 319.584 158.011 319.589 152.119 C 319.599 140.556 319.616 128.993 319.637 117.431 Z" style="stroke-width: 1; fill: rgb(37, 42, 50);"/>
    <path d="M 60.2 156.402 C 70.68 165.245 76.126 175.873 77.637 189.429 C 77.713 204.138 74.826 216.412 64.708 227.554 C 53.538 238.356 41.181 240.846 26.352 240.64 C 17.197 240.349 8.75 237.318 1.637 231.429 C -0.673 228.459 -2.983 225.489 -5.363 222.429 C -5.693 240.249 -6.023 258.069 -6.363 276.429 C -10.323 276.429 -14.282 276.429 -18.362 276.429 C -18.452 264.511 -18.522 252.593 -18.572 240.674 C -18.592 235.139 -18.622 229.604 -18.662 224.069 C -18.712 218.719 -18.732 213.37 -18.742 208.021 C -18.752 205.988 -18.762 203.955 -18.782 201.921 C -18.962 185.019 -17.262 172.082 -5.296 159.207 C 12.222 142.441 41.209 141.782 60.2 156.402 Z M 1.387 170.742 C -4.845 178.418 -7.249 187.633 -6.363 197.429 C -4.691 207.811 -1.182 215.506 6.95 222.304 C 11.29 225.44 15.417 227.293 20.637 228.429 C 21.395 228.594 22.153 228.759 22.934 228.929 C 32.714 230.464 42.47 228.372 50.637 222.804 C 59.858 215.346 63.401 206.908 64.919 195.273 C 65.353 186.448 62.189 177.236 56.637 170.429 C 50.234 163.591 42.221 158.893 32.755 158.226 C 19.519 158.035 10.476 160.949 1.387 170.742 Z" style="stroke-width: 1; fill: rgb(37, 42, 50);"/>
    <path d="M 154.262 154.117 C 161.096 160.771 165.267 168.938 165.813 178.508 C 165.823 181.149 165.739 183.79 165.637 186.429 C 161.677 186.429 157.717 186.429 153.637 186.429 C 153.467 185.416 153.297 184.403 153.122 183.359 C 152.878 182.007 152.633 180.656 152.387 179.304 C 152.278 178.639 152.168 177.974 152.055 177.289 C 151.025 171.755 149.11 167.463 144.637 163.785 C 143.977 163.399 143.317 163.014 142.637 162.617 C 141.977 162.219 141.317 161.82 140.637 161.41 C 133.73 158.024 124.805 158.451 117.637 160.804 C 112.453 162.544 112.453 162.544 108.575 166.054 C 108.266 166.838 107.956 167.622 107.637 168.429 C 106.882 170.039 106.882 170.039 106.111 171.681 C 103.816 177.853 104.157 184.27 104.126 190.773 C 104.109 192.152 104.091 193.53 104.071 194.909 C 104.024 198.513 103.994 202.116 103.968 205.72 C 103.938 209.407 103.891 213.094 103.846 216.781 C 103.761 223.997 103.695 231.213 103.637 238.429 C 99.347 238.429 95.057 238.429 90.637 238.429 C 90.569 230.814 90.514 223.198 90.482 215.582 C 90.466 212.044 90.445 208.507 90.411 204.969 C 90.372 200.888 90.358 196.808 90.344 192.726 C 90.321 190.851 90.321 190.851 90.297 188.937 C 90.295 176.806 91.962 165.686 100.387 156.527 C 115.054 142.54 138.034 143.684 154.262 154.117 Z" style="stroke-width: 1; fill: rgb(37, 42, 50);"/>
    <path d="M 255.645 146.269 C 267.997 145.745 279.724 149.241 289.262 156.992 C 296.747 163.933 301.21 173.177 301.812 183.385 C 301.868 186.891 301.862 190.392 301.833 193.898 C 301.83 195.174 301.827 196.45 301.824 197.765 C 301.815 201.132 301.797 204.499 301.775 207.865 C 301.754 211.311 301.745 214.757 301.735 218.203 C 301.713 224.945 301.679 231.687 301.637 238.429 C 297.677 238.429 293.717 238.429 289.637 238.429 C 289.608 236.191 289.608 236.191 289.577 233.907 C 289.501 228.334 289.412 222.762 289.32 217.189 C 289.282 214.784 289.247 212.379 289.216 209.973 C 289.17 206.503 289.112 203.033 289.051 199.562 C 289.04 198.498 289.028 197.434 289.016 196.338 C 288.82 186.236 287.993 175.751 281.208 167.742 C 274.646 161.462 266.553 159.222 257.637 158.929 C 249.209 159.188 240.688 161.196 234.637 167.429 C 227.848 176.016 227.183 184.949 227.126 195.558 C 227.108 196.789 227.09 198.019 227.071 199.286 C 227.017 203.188 226.983 207.09 226.95 210.992 C 226.918 213.649 226.882 216.306 226.846 218.963 C 226.762 225.452 226.695 231.94 226.637 238.429 C 222.347 238.429 218.057 238.429 213.637 238.429 C 213.563 231.138 213.508 223.846 213.473 216.554 C 213.458 214.079 213.437 211.605 213.411 209.13 C 213.059 174.873 213.059 174.873 221.637 162.429 C 222.359 161.378 223.081 160.326 223.825 159.242 C 232.622 150.444 243.598 147.23 255.645 146.269 Z" style="stroke-width: 1; fill: rgb(37, 42, 50);"/>
    <path d="M 406.637 110.431 C 410.927 110.431 415.217 110.431 419.637 110.431 C 419.967 127.589 420.297 144.749 420.637 162.429 C 422.947 159.789 425.257 157.149 427.637 154.429 C 437.591 146.964 448.263 145.483 460.423 146.711 C 469.622 148.056 478.076 151.719 484.637 158.429 C 494.389 171.929 495.804 185.567 495.77 201.75 C 495.771 202.775 495.772 203.8 495.773 204.857 C 495.774 206.999 495.772 209.142 495.768 211.285 C 495.762 214.581 495.768 217.876 495.774 221.172 C 495.773 223.26 495.772 225.349 495.77 227.437 C 495.772 228.426 495.774 229.414 495.776 230.432 C 495.772 231.791 495.772 231.791 495.767 233.176 C 495.766 233.976 495.765 234.775 495.764 235.599 C 495.637 237.429 495.637 237.429 494.637 238.429 C 492.618 238.502 490.596 238.513 488.575 238.492 C 487.47 238.483 486.365 238.474 485.227 238.465 C 483.945 238.447 483.945 238.447 482.637 238.429 C 482.632 237.79 482.626 237.15 482.62 236.491 C 482.555 229.791 482.471 223.09 482.375 216.39 C 482.342 213.894 482.314 211.399 482.291 208.903 C 482.257 205.301 482.205 201.699 482.149 198.097 C 482.143 196.995 482.136 195.892 482.13 194.756 C 481.921 183.552 480.102 174.028 472.075 165.804 C 463.815 159.44 453.75 158.154 443.637 159.429 C 435.279 161.568 429.298 165.133 424.637 172.429 C 420.79 180.393 420.037 187.79 420.028 196.535 C 420.011 197.74 419.995 198.945 419.978 200.187 C 419.93 203.997 419.908 207.807 419.887 211.617 C 419.859 214.217 419.829 216.816 419.798 219.416 C 419.724 225.754 419.674 232.091 419.637 238.429 C 415.347 238.429 411.057 238.429 406.637 238.429 C 406.637 196.189 406.637 153.949 406.637 110.431 Z" style="stroke-width: 1; fill: rgb(37, 42, 50);"/>
    <path d="M 617.637 110.431 C 621.927 110.431 626.217 110.431 630.637 110.431 C 630.967 127.919 631.297 145.409 631.637 163.429 C 633.287 161.449 634.937 159.469 636.637 157.429 C 645.922 148.615 657.974 146.076 670.415 146.215 C 684.186 147.133 695.5 153.177 704.637 163.429 C 713.487 176.622 715.323 190.051 713.208 205.586 C 710.506 217.194 703.185 226.522 693.637 233.429 C 684.702 238.456 676.032 240.809 665.825 240.742 C 664.935 240.736 664.045 240.731 663.128 240.725 C 656.86 240.609 651.382 240.105 645.637 237.429 C 644.729 237.016 643.82 236.602 642.883 236.176 C 630.887 230.186 624.506 221.758 619.637 209.429 C 617.889 203.301 617.354 197.494 617.41 191.146 C 617.41 190.267 617.41 189.388 617.409 188.482 C 617.411 185.609 617.426 182.736 617.442 179.863 C 617.446 177.858 617.449 175.853 617.451 173.848 C 617.458 168.596 617.478 163.343 617.5 158.091 C 617.521 152.721 617.53 147.352 617.54 141.982 C 617.561 131.465 617.595 120.951 617.637 110.431 Z M 639.637 168.429 C 637.313 171.277 635.418 174.218 633.637 177.429 C 633.296 178.021 632.954 178.613 632.602 179.222 C 628.707 187.43 629.478 199.114 632.325 207.492 C 636.569 217.336 642.647 223.114 652.637 227.242 C 662.827 230.612 673.199 229.732 682.95 225.242 C 691.871 220.324 697.041 213.234 700.247 203.597 C 702.355 191.898 700.699 181.435 694.321 171.347 C 689.219 164.676 680.862 159.8 672.637 158.429 C 660.147 157.44 648.825 159.343 639.637 168.429 Z" style="stroke-width: 1; fill: rgb(37, 42, 50);"/>
    <path d="M 180.637 149.429 C 184.927 149.429 189.217 149.429 193.637 149.429 C 193.637 178.799 193.637 208.169 193.637 238.429 C 189.347 238.429 185.057 238.429 180.637 238.429 C 180.637 209.059 180.637 179.689 180.637 149.429 Z" style="stroke-width: 1; fill: rgb(37, 42, 50);"/>
    <path d="M 512.637 149.429 C 516.597 149.429 520.557 149.429 524.637 149.429 C 524.652 150.912 524.667 152.394 524.682 153.921 C 524.74 159.467 524.817 165.014 524.9 170.56 C 524.933 172.951 524.961 175.343 524.984 177.735 C 525.018 181.191 525.07 184.646 525.126 188.101 C 525.132 189.155 525.138 190.209 525.145 191.294 C 525.339 201.291 526.558 212.769 533.637 220.429 C 541.371 227.016 550.678 228.798 560.661 228.269 C 568.78 227.098 575.774 224.141 581.012 217.679 C 586.798 209.897 587.097 200.856 587.149 191.519 C 587.176 189.707 587.176 189.707 587.203 187.859 C 587.257 184.028 587.291 180.198 587.325 176.367 C 587.358 173.758 587.393 171.149 587.428 168.541 C 587.513 162.17 587.58 155.8 587.637 149.429 C 591.927 149.429 596.217 149.429 600.637 149.429 C 600.712 156.56 600.766 163.691 600.802 170.822 C 600.817 173.242 600.838 175.662 600.864 178.081 C 601.265 216.178 601.265 216.178 589.528 228.676 C 580.009 237.62 569.869 240.829 556.95 240.804 C 555.639 240.802 555.639 240.802 554.301 240.8 C 544.547 240.616 535.407 238.645 527.637 232.429 C 526.812 231.873 525.987 231.316 525.137 230.742 C 517.657 223.823 513.348 214.216 512.291 204.125 C 512.179 200.599 512.186 197.097 512.247 193.57 C 512.252 192.3 512.258 191.029 512.264 189.72 C 512.282 186.386 512.318 183.053 512.363 179.719 C 512.404 176.3 512.422 172.88 512.442 169.461 C 512.486 162.783 512.555 156.107 512.637 149.429 Z" style="stroke-width: 1; fill: rgb(37, 42, 50);"/>
  </g>
</svg>